<mxfile host="Electron" modified="2024-06-10T01:31:00.727Z" agent="Mozilla/5.0 (X11; Linux x86_64) AppleWebKit/537.36 (KHTML, like Gecko) draw.io/24.5.1 Chrome/124.0.6367.207 Electron/30.0.6 Safari/537.36" etag="0lg78yyXZHpn-fsOw8Fo" version="24.5.1" type="device">
  <diagram name="Страница — 1" id="gug9YWVX5ZGK4OThJXDl">
    <mxGraphModel dx="1231" dy="727" grid="1" gridSize="10" guides="1" tooltips="1" connect="1" arrows="1" fold="1" page="1" pageScale="1" pageWidth="4000" pageHeight="2000" math="0" shadow="0">
      <root>
        <mxCell id="0" />
        <mxCell id="1" parent="0" />
        <mxCell id="VhRbGQZjsnHlF9N6oI5H-1" value="&lt;span style=&quot;font-size: 25px;&quot;&gt;Controller&lt;/span&gt;" style="rounded=0;whiteSpace=wrap;html=1;" parent="1" vertex="1">
          <mxGeometry x="660" y="980" width="360" height="60" as="geometry" />
        </mxCell>
        <mxCell id="VhRbGQZjsnHlF9N6oI5H-12" value="&lt;span style=&quot;font-size: 25px;&quot;&gt;Cabin&lt;/span&gt;" style="rounded=0;whiteSpace=wrap;html=1;" parent="1" vertex="1">
          <mxGeometry x="1570" y="980" width="360" height="60" as="geometry" />
        </mxCell>
        <mxCell id="VhRbGQZjsnHlF9N6oI5H-13" value="&lt;font style=&quot;font-size: 25px;&quot;&gt;Move&lt;/font&gt;" style="rounded=1;whiteSpace=wrap;html=1;" parent="1" vertex="1">
          <mxGeometry x="1370" y="600" width="120" height="60" as="geometry" />
        </mxCell>
        <mxCell id="VhRbGQZjsnHlF9N6oI5H-17" value="&lt;font style=&quot;font-size: 25px;&quot;&gt;Prepare&lt;/font&gt;" style="rounded=1;whiteSpace=wrap;html=1;" parent="1" vertex="1">
          <mxGeometry x="1370" y="720" width="120" height="60" as="geometry" />
        </mxCell>
        <mxCell id="VhRbGQZjsnHlF9N6oI5H-18" value="&lt;font style=&quot;font-size: 25px;&quot;&gt;Stop&lt;/font&gt;" style="rounded=1;whiteSpace=wrap;html=1;" parent="1" vertex="1">
          <mxGeometry x="1510" y="510" width="120" height="60" as="geometry" />
        </mxCell>
        <mxCell id="VhRbGQZjsnHlF9N6oI5H-19" value="&lt;font style=&quot;font-size: 25px;&quot;&gt;Lock&lt;/font&gt;" style="rounded=1;whiteSpace=wrap;html=1;" parent="1" vertex="1">
          <mxGeometry x="1650" y="600" width="120" height="60" as="geometry" />
        </mxCell>
        <mxCell id="VhRbGQZjsnHlF9N6oI5H-20" value="&lt;font style=&quot;font-size: 25px;&quot;&gt;Unlock&lt;/font&gt;" style="rounded=1;whiteSpace=wrap;html=1;" parent="1" vertex="1">
          <mxGeometry x="1650" y="720" width="120" height="60" as="geometry" />
        </mxCell>
        <mxCell id="VhRbGQZjsnHlF9N6oI5H-21" value="" style="endArrow=classic;html=1;rounded=0;fontSize=12;startSize=8;endSize=8;exitX=1;exitY=0.5;exitDx=0;exitDy=0;entryX=0.5;entryY=0;entryDx=0;entryDy=0;edgeStyle=orthogonalEdgeStyle;" parent="1" source="VhRbGQZjsnHlF9N6oI5H-18" target="VhRbGQZjsnHlF9N6oI5H-19" edge="1">
          <mxGeometry width="50" height="50" relative="1" as="geometry">
            <mxPoint x="1460" y="620" as="sourcePoint" />
            <mxPoint x="1510" y="570" as="targetPoint" />
          </mxGeometry>
        </mxCell>
        <mxCell id="VhRbGQZjsnHlF9N6oI5H-22" value="" style="endArrow=classic;html=1;rounded=0;fontSize=12;startSize=8;endSize=8;curved=1;" parent="1" source="VhRbGQZjsnHlF9N6oI5H-19" target="VhRbGQZjsnHlF9N6oI5H-20" edge="1">
          <mxGeometry width="50" height="50" relative="1" as="geometry">
            <mxPoint x="1460" y="620" as="sourcePoint" />
            <mxPoint x="1510" y="570" as="targetPoint" />
          </mxGeometry>
        </mxCell>
        <mxCell id="VhRbGQZjsnHlF9N6oI5H-23" value="" style="endArrow=classic;html=1;rounded=0;fontSize=12;startSize=8;endSize=8;curved=1;" parent="1" source="VhRbGQZjsnHlF9N6oI5H-20" target="VhRbGQZjsnHlF9N6oI5H-17" edge="1">
          <mxGeometry width="50" height="50" relative="1" as="geometry">
            <mxPoint x="1460" y="620" as="sourcePoint" />
            <mxPoint x="1510" y="570" as="targetPoint" />
          </mxGeometry>
        </mxCell>
        <mxCell id="VhRbGQZjsnHlF9N6oI5H-24" value="" style="endArrow=classic;html=1;rounded=0;fontSize=12;startSize=8;endSize=8;curved=1;" parent="1" source="VhRbGQZjsnHlF9N6oI5H-17" target="VhRbGQZjsnHlF9N6oI5H-13" edge="1">
          <mxGeometry width="50" height="50" relative="1" as="geometry">
            <mxPoint x="1460" y="620" as="sourcePoint" />
            <mxPoint x="1510" y="570" as="targetPoint" />
          </mxGeometry>
        </mxCell>
        <mxCell id="VhRbGQZjsnHlF9N6oI5H-25" value="" style="endArrow=classic;startArrow=classic;html=1;rounded=0;fontSize=12;startSize=8;endSize=8;edgeStyle=orthogonalEdgeStyle;" parent="1" source="VhRbGQZjsnHlF9N6oI5H-13" target="VhRbGQZjsnHlF9N6oI5H-18" edge="1">
          <mxGeometry width="50" height="50" relative="1" as="geometry">
            <mxPoint x="1400" y="570" as="sourcePoint" />
            <mxPoint x="1480" y="510" as="targetPoint" />
            <Array as="points">
              <mxPoint x="1430" y="540" />
            </Array>
          </mxGeometry>
        </mxCell>
        <mxCell id="VhRbGQZjsnHlF9N6oI5H-26" value="" style="endArrow=classic;html=1;rounded=0;fontSize=12;startSize=8;endSize=8;exitX=0;exitY=0.75;exitDx=0;exitDy=0;edgeStyle=orthogonalEdgeStyle;entryX=0;entryY=0.25;entryDx=0;entryDy=0;" parent="1" source="VhRbGQZjsnHlF9N6oI5H-13" target="VhRbGQZjsnHlF9N6oI5H-13" edge="1">
          <mxGeometry width="50" height="50" relative="1" as="geometry">
            <mxPoint x="1250" y="660" as="sourcePoint" />
            <mxPoint x="1280" y="610" as="targetPoint" />
            <Array as="points">
              <mxPoint x="1320" y="645" />
              <mxPoint x="1320" y="615" />
            </Array>
          </mxGeometry>
        </mxCell>
        <mxCell id="VhRbGQZjsnHlF9N6oI5H-29" value="" style="endArrow=classic;html=1;rounded=0;fontSize=12;startSize=8;endSize=8;curved=1;entryX=0.5;entryY=0;entryDx=0;entryDy=0;" parent="1" target="VhRbGQZjsnHlF9N6oI5H-18" edge="1">
          <mxGeometry width="50" height="50" relative="1" as="geometry">
            <mxPoint x="1570" y="460" as="sourcePoint" />
            <mxPoint x="1510" y="720" as="targetPoint" />
          </mxGeometry>
        </mxCell>
        <mxCell id="VhRbGQZjsnHlF9N6oI5H-30" value="&lt;font style=&quot;font-size: 25px;&quot;&gt;Closed&lt;/font&gt;" style="rounded=1;whiteSpace=wrap;html=1;" parent="1" vertex="1">
          <mxGeometry x="1930" y="560" width="120" height="60" as="geometry" />
        </mxCell>
        <mxCell id="VhRbGQZjsnHlF9N6oI5H-31" value="&lt;font style=&quot;font-size: 25px;&quot;&gt;Closing&lt;/font&gt;" style="rounded=1;whiteSpace=wrap;html=1;" parent="1" vertex="1">
          <mxGeometry x="1930" y="680" width="120" height="60" as="geometry" />
        </mxCell>
        <mxCell id="VhRbGQZjsnHlF9N6oI5H-32" value="&lt;font style=&quot;font-size: 25px;&quot;&gt;Opening&lt;/font&gt;" style="rounded=1;whiteSpace=wrap;html=1;" parent="1" vertex="1">
          <mxGeometry x="2210" y="560" width="120" height="60" as="geometry" />
        </mxCell>
        <mxCell id="VhRbGQZjsnHlF9N6oI5H-33" value="&lt;span style=&quot;font-size: 25px;&quot;&gt;Opened&lt;/span&gt;" style="rounded=1;whiteSpace=wrap;html=1;" parent="1" vertex="1">
          <mxGeometry x="2210" y="680" width="120" height="60" as="geometry" />
        </mxCell>
        <mxCell id="VhRbGQZjsnHlF9N6oI5H-34" value="" style="endArrow=classic;html=1;rounded=0;fontSize=12;startSize=8;endSize=8;curved=1;" parent="1" source="VhRbGQZjsnHlF9N6oI5H-32" target="VhRbGQZjsnHlF9N6oI5H-33" edge="1">
          <mxGeometry width="50" height="50" relative="1" as="geometry">
            <mxPoint x="2020" y="580" as="sourcePoint" />
            <mxPoint x="2070" y="530" as="targetPoint" />
          </mxGeometry>
        </mxCell>
        <mxCell id="VhRbGQZjsnHlF9N6oI5H-35" value="" style="endArrow=classic;html=1;rounded=0;fontSize=12;startSize=8;endSize=8;curved=1;" parent="1" source="VhRbGQZjsnHlF9N6oI5H-33" target="VhRbGQZjsnHlF9N6oI5H-31" edge="1">
          <mxGeometry width="50" height="50" relative="1" as="geometry">
            <mxPoint x="2020" y="580" as="sourcePoint" />
            <mxPoint x="2070" y="530" as="targetPoint" />
          </mxGeometry>
        </mxCell>
        <mxCell id="VhRbGQZjsnHlF9N6oI5H-36" value="" style="endArrow=classic;html=1;rounded=0;fontSize=12;startSize=8;endSize=8;curved=1;" parent="1" source="VhRbGQZjsnHlF9N6oI5H-31" target="VhRbGQZjsnHlF9N6oI5H-30" edge="1">
          <mxGeometry width="50" height="50" relative="1" as="geometry">
            <mxPoint x="2020" y="580" as="sourcePoint" />
            <mxPoint x="2070" y="530" as="targetPoint" />
          </mxGeometry>
        </mxCell>
        <mxCell id="VhRbGQZjsnHlF9N6oI5H-38" value="&lt;span style=&quot;font-size: 25px;&quot;&gt;Doors&lt;/span&gt;" style="rounded=0;whiteSpace=wrap;html=1;" parent="1" vertex="1">
          <mxGeometry x="2270" y="980" width="360" height="60" as="geometry" />
        </mxCell>
        <mxCell id="VhRbGQZjsnHlF9N6oI5H-39" value="" style="endArrow=classic;html=1;rounded=0;fontSize=12;startSize=8;endSize=8;curved=0;" parent="1" source="VhRbGQZjsnHlF9N6oI5H-30" target="VhRbGQZjsnHlF9N6oI5H-32" edge="1">
          <mxGeometry width="50" height="50" relative="1" as="geometry">
            <mxPoint x="1960" y="670" as="sourcePoint" />
            <mxPoint x="2010" y="620" as="targetPoint" />
          </mxGeometry>
        </mxCell>
        <mxCell id="VhRbGQZjsnHlF9N6oI5H-42" value="Timer" style="edgeLabel;html=1;align=center;verticalAlign=middle;resizable=0;points=[];fontSize=12;" parent="VhRbGQZjsnHlF9N6oI5H-39" vertex="1" connectable="0">
          <mxGeometry x="0.1484" y="2" relative="1" as="geometry">
            <mxPoint x="1" as="offset" />
          </mxGeometry>
        </mxCell>
        <mxCell id="VhRbGQZjsnHlF9N6oI5H-40" value="" style="endArrow=classic;html=1;rounded=0;fontSize=12;startSize=8;endSize=8;curved=1;" parent="1" source="VhRbGQZjsnHlF9N6oI5H-31" target="VhRbGQZjsnHlF9N6oI5H-32" edge="1">
          <mxGeometry width="50" height="50" relative="1" as="geometry">
            <mxPoint x="1960" y="670" as="sourcePoint" />
            <mxPoint x="2010" y="620" as="targetPoint" />
          </mxGeometry>
        </mxCell>
        <mxCell id="VhRbGQZjsnHlF9N6oI5H-43" value="Timer" style="edgeLabel;html=1;align=center;verticalAlign=middle;resizable=0;points=[];fontSize=12;" parent="1" vertex="1" connectable="0">
          <mxGeometry x="2152.25" y="598" as="geometry">
            <mxPoint x="108" y="49" as="offset" />
          </mxGeometry>
        </mxCell>
        <mxCell id="VhRbGQZjsnHlF9N6oI5H-44" value="Timer" style="edgeLabel;html=1;align=center;verticalAlign=middle;resizable=0;points=[];fontSize=12;" parent="1" vertex="1" connectable="0">
          <mxGeometry x="2140" y="630" as="geometry">
            <mxPoint x="-1" y="13" as="offset" />
          </mxGeometry>
        </mxCell>
        <mxCell id="VhRbGQZjsnHlF9N6oI5H-45" value="Timer" style="edgeLabel;html=1;align=center;verticalAlign=middle;resizable=0;points=[];fontSize=12;" parent="1" vertex="1" connectable="0">
          <mxGeometry x="2172.25" y="618" as="geometry">
            <mxPoint x="-189" y="40" as="offset" />
          </mxGeometry>
        </mxCell>
        <mxCell id="VhRbGQZjsnHlF9N6oI5H-46" value="Timer" style="edgeLabel;html=1;align=center;verticalAlign=middle;resizable=0;points=[];fontSize=12;" parent="1" vertex="1" connectable="0">
          <mxGeometry x="2182.25" y="628" as="geometry">
            <mxPoint x="-49" y="84" as="offset" />
          </mxGeometry>
        </mxCell>
        <mxCell id="VhRbGQZjsnHlF9N6oI5H-47" value="" style="endArrow=classic;html=1;rounded=0;fontSize=12;startSize=8;endSize=8;curved=1;" parent="1" target="VhRbGQZjsnHlF9N6oI5H-30" edge="1">
          <mxGeometry width="50" height="50" relative="1" as="geometry">
            <mxPoint x="1990" y="480" as="sourcePoint" />
            <mxPoint x="1980" y="510" as="targetPoint" />
          </mxGeometry>
        </mxCell>
        <mxCell id="P0fVhFBQtpl-JfbyB7Eg-1" value="&lt;font style=&quot;font-size: 25px;&quot;&gt;Managing cabin&lt;/font&gt;" style="rounded=1;whiteSpace=wrap;html=1;" vertex="1" parent="1">
          <mxGeometry x="880" y="1390" width="300" height="60" as="geometry" />
        </mxCell>
        <mxCell id="P0fVhFBQtpl-JfbyB7Eg-2" value="&lt;font style=&quot;font-size: 25px;&quot;&gt;Reach floor&lt;/font&gt;" style="rounded=1;whiteSpace=wrap;html=1;" vertex="1" parent="1">
          <mxGeometry x="700" y="1510" width="300" height="60" as="geometry" />
        </mxCell>
        <mxCell id="P0fVhFBQtpl-JfbyB7Eg-4" value="&lt;font style=&quot;font-size: 25px;&quot;&gt;Free&lt;/font&gt;" style="rounded=1;whiteSpace=wrap;html=1;" vertex="1" parent="1">
          <mxGeometry x="690" y="1150" width="300" height="60" as="geometry" />
        </mxCell>
        <mxCell id="P0fVhFBQtpl-JfbyB7Eg-5" value="&lt;font style=&quot;font-size: 25px;&quot;&gt;Managing new floor dest&lt;/font&gt;" style="rounded=1;whiteSpace=wrap;html=1;" vertex="1" parent="1">
          <mxGeometry x="500" y="1260" width="300" height="60" as="geometry" />
        </mxCell>
        <mxCell id="P0fVhFBQtpl-JfbyB7Eg-7" value="&lt;font style=&quot;font-size: 25px;&quot;&gt;Managing new cabin dest&lt;/font&gt;" style="rounded=1;whiteSpace=wrap;html=1;" vertex="1" parent="1">
          <mxGeometry x="880" y="1260" width="300" height="60" as="geometry" />
        </mxCell>
        <mxCell id="P0fVhFBQtpl-JfbyB7Eg-8" value="" style="endArrow=classic;html=1;rounded=0;entryX=0.5;entryY=0;entryDx=0;entryDy=0;" edge="1" parent="1" target="P0fVhFBQtpl-JfbyB7Eg-4">
          <mxGeometry width="50" height="50" relative="1" as="geometry">
            <mxPoint x="840" y="1090" as="sourcePoint" />
            <mxPoint x="970" y="1050" as="targetPoint" />
          </mxGeometry>
        </mxCell>
        <mxCell id="P0fVhFBQtpl-JfbyB7Eg-9" value="" style="endArrow=classic;html=1;rounded=1;entryX=0.5;entryY=0;entryDx=0;entryDy=0;exitX=0.5;exitY=1;exitDx=0;exitDy=0;edgeStyle=orthogonalEdgeStyle;curved=0;" edge="1" parent="1" source="P0fVhFBQtpl-JfbyB7Eg-4" target="P0fVhFBQtpl-JfbyB7Eg-5">
          <mxGeometry width="50" height="50" relative="1" as="geometry">
            <mxPoint x="920" y="1360" as="sourcePoint" />
            <mxPoint x="970" y="1310" as="targetPoint" />
          </mxGeometry>
        </mxCell>
        <mxCell id="P0fVhFBQtpl-JfbyB7Eg-10" value="" style="endArrow=classic;html=1;rounded=1;exitX=0.5;exitY=1;exitDx=0;exitDy=0;entryX=0.5;entryY=0;entryDx=0;entryDy=0;edgeStyle=orthogonalEdgeStyle;curved=0;" edge="1" parent="1" source="P0fVhFBQtpl-JfbyB7Eg-4" target="P0fVhFBQtpl-JfbyB7Eg-7">
          <mxGeometry width="50" height="50" relative="1" as="geometry">
            <mxPoint x="920" y="1360" as="sourcePoint" />
            <mxPoint x="1070" y="1190" as="targetPoint" />
          </mxGeometry>
        </mxCell>
        <mxCell id="P0fVhFBQtpl-JfbyB7Eg-11" value="" style="endArrow=classic;html=1;rounded=1;exitX=0.5;exitY=1;exitDx=0;exitDy=0;entryX=0;entryY=0.5;entryDx=0;entryDy=0;edgeStyle=orthogonalEdgeStyle;curved=1;" edge="1" parent="1" source="P0fVhFBQtpl-JfbyB7Eg-5" target="P0fVhFBQtpl-JfbyB7Eg-1">
          <mxGeometry width="50" height="50" relative="1" as="geometry">
            <mxPoint x="920" y="1380" as="sourcePoint" />
            <mxPoint x="650" y="1390" as="targetPoint" />
          </mxGeometry>
        </mxCell>
        <mxCell id="P0fVhFBQtpl-JfbyB7Eg-14" value="" style="endArrow=classic;html=1;rounded=1;entryX=0.5;entryY=0;entryDx=0;entryDy=0;exitX=0.5;exitY=1;exitDx=0;exitDy=0;edgeStyle=orthogonalEdgeStyle;curved=1;" edge="1" parent="1" source="P0fVhFBQtpl-JfbyB7Eg-7" target="P0fVhFBQtpl-JfbyB7Eg-1">
          <mxGeometry width="50" height="50" relative="1" as="geometry">
            <mxPoint x="920" y="1380" as="sourcePoint" />
            <mxPoint x="970" y="1330" as="targetPoint" />
          </mxGeometry>
        </mxCell>
        <mxCell id="P0fVhFBQtpl-JfbyB7Eg-15" value="" style="endArrow=classic;html=1;rounded=1;entryX=0.5;entryY=0;entryDx=0;entryDy=0;exitX=0.5;exitY=1;exitDx=0;exitDy=0;edgeStyle=orthogonalEdgeStyle;" edge="1" parent="1" source="P0fVhFBQtpl-JfbyB7Eg-1" target="P0fVhFBQtpl-JfbyB7Eg-2">
          <mxGeometry width="50" height="50" relative="1" as="geometry">
            <mxPoint x="570" y="1540" as="sourcePoint" />
            <mxPoint x="620" y="1490" as="targetPoint" />
          </mxGeometry>
        </mxCell>
        <mxCell id="P0fVhFBQtpl-JfbyB7Eg-17" value="" style="endArrow=classic;html=1;rounded=1;exitX=1;exitY=0.5;exitDx=0;exitDy=0;entryX=1;entryY=0.5;entryDx=0;entryDy=0;edgeStyle=orthogonalEdgeStyle;curved=0;" edge="1" parent="1" source="P0fVhFBQtpl-JfbyB7Eg-1" target="P0fVhFBQtpl-JfbyB7Eg-4">
          <mxGeometry width="50" height="50" relative="1" as="geometry">
            <mxPoint x="1250" y="1450" as="sourcePoint" />
            <mxPoint x="1300" y="1400" as="targetPoint" />
            <Array as="points">
              <mxPoint x="1220" y="1420" />
              <mxPoint x="1220" y="1180" />
            </Array>
          </mxGeometry>
        </mxCell>
        <mxCell id="P0fVhFBQtpl-JfbyB7Eg-18" value="" style="endArrow=classic;html=1;rounded=1;entryX=0.75;entryY=1;entryDx=0;entryDy=0;exitX=1;exitY=0.5;exitDx=0;exitDy=0;edgeStyle=orthogonalEdgeStyle;" edge="1" parent="1" source="P0fVhFBQtpl-JfbyB7Eg-2" target="P0fVhFBQtpl-JfbyB7Eg-1">
          <mxGeometry width="50" height="50" relative="1" as="geometry">
            <mxPoint x="770" y="1670" as="sourcePoint" />
            <mxPoint x="580" y="1590" as="targetPoint" />
          </mxGeometry>
        </mxCell>
      </root>
    </mxGraphModel>
  </diagram>
</mxfile>
